<svg width="136.000000" height="50.000244" viewBox="0 0 136 50.0002" fill="none" xmlns="http://www.w3.org/2000/svg" xmlns:xlink="http://www.w3.org/1999/xlink">
	<desc>
			Created with Pixso.
	</desc>
	<defs/>
	<path id="Vector" d="M33.26 1.87L45.53 23.12C46.2 24.28 46.2 25.71 45.53 26.87L33.26 48.12C32.59 49.28 31.36 50 30.02 50L37.21 50C38.55 50 39.78 49.28 40.45 48.12L52.72 26.87C53.39 25.71 53.39 24.28 52.72 23.12L40.45 1.87C39.78 0.71 38.55 0 37.21 0L30.02 0C31.36 0 32.59 0.71 33.26 1.87Z" fill="#39435A" fill-opacity="1.000000" fill-rule="nonzero"/>
	<path id="Vector" d="M33.26 1.87L33.81 2.82C34.74 2.83 35.7 2.91 36.69 3.05C38.65 3.34 40.46 3.86 42 4.55L40.45 1.87C39.78 0.71 38.55 0 37.21 0L30.02 0C31.36 0 32.59 0.71 33.26 1.87Z" fill="#2C374C" fill-opacity="1.000000" fill-rule="nonzero"/>
	<path id="Vector" d="M19.42 1.87L31.69 23.12C32.36 24.28 32.36 25.71 31.69 26.87L19.42 48.12C18.75 49.28 17.51 50 16.17 50L23.37 50C24.7 50 25.94 49.28 26.61 48.12L38.88 26.87C39.55 25.71 39.55 24.28 38.88 23.12L26.61 1.87C25.94 0.71 24.7 0 23.36 0L16.17 0C17.51 0 18.75 0.71 19.42 1.87Z" fill="#39435A" fill-opacity="1.000000" fill-rule="nonzero"/>
	<path id="Vector" d="M19.96 48.12L7.69 26.87C7.02 25.71 7.02 24.28 7.69 23.12L19.96 1.87C20.63 0.71 21.86 0 23.2 0L16.01 0C14.67 0 13.44 0.71 12.77 1.87L0.5 23.12C-0.17 24.28 -0.17 25.71 0.5 26.87L12.77 48.12C13.44 49.28 14.67 49.99 16.01 49.99L23.2 49.99C21.86 49.99 20.63 49.28 19.96 48.12Z" fill="#435F94" fill-opacity="1.000000" fill-rule="nonzero"/>
	<path id="Vector" d="M27.05 48.12L14.78 26.87C14.11 25.71 14.11 24.28 14.78 23.12L27.05 1.87C27.72 0.71 28.95 0 30.29 0L23.1 0C21.76 0 20.53 0.71 19.86 1.87L7.59 23.12C6.92 24.28 6.92 25.71 7.59 26.87L19.86 48.12C20.53 49.28 21.76 50 23.1 50L30.29 50C28.95 49.99 27.72 49.28 27.05 48.12Z" fill="#377DFF" fill-opacity="1.000000" fill-rule="nonzero"/>
	<path id="Vector" d="M34.27 48.12L22 26.87C21.33 25.71 21.33 24.28 22 23.12L34.27 1.87C34.94 0.71 36.18 0 37.52 0L30.33 0C28.99 0 27.75 0.71 27.08 1.87L14.81 23.12C14.14 24.28 14.14 25.71 14.81 26.87L27.08 48.12C27.75 49.28 28.99 50 30.33 50L37.52 50C36.18 49.99 34.94 49.28 34.27 48.12Z" fill="#37DBFF" fill-opacity="1.000000" fill-rule="nonzero"/>
	<path id="Agency" d="M70.42 7.31L67.42 14.85L73.48 14.85L70.42 7.31ZM73.79 15.62L75.46 19.74Q75.47 19.78 75.49 19.82Q75.53 19.88 75.6 19.93Q75.63 19.94 75.66 19.96Q75.75 20 75.86 20Q76.01 20 76.12 19.93Q76.14 19.91 76.15 19.9Q76.19 19.86 76.22 19.82Q76.28 19.74 76.28 19.61Q76.28 19.52 76.26 19.45L70.87 6.22Q70.85 6.14 70.81 6.09Q70.78 6.05 70.73 6.03Q70.64 5.96 70.47 5.96Q70.33 5.96 70.25 6.01Q70.16 6.05 70.09 6.22L64.71 19.45Q64.67 19.58 64.69 19.65Q64.7 19.73 64.74 19.79Q64.76 19.85 64.81 19.9Q64.91 20 65.11 20Q65.18 20 65.24 19.97Q65.29 19.96 65.33 19.93Q65.39 19.89 65.43 19.83Q65.46 19.79 65.47 19.74L67.1 15.65L73.79 15.65L73.79 15.62ZM84.66 9.99Q83.92 9.7 83.05 9.7Q82.06 9.7 81.22 10.05Q80.89 10.19 80.58 10.38Q80.25 10.58 79.96 10.84Q79.3 11.42 78.85 12.25Q78.8 12.35 78.75 12.45Q78.22 13.56 78.22 14.94Q78.22 16.31 78.75 17.42Q78.8 17.53 78.85 17.63Q79.28 18.42 79.91 18.99Q80.22 19.28 80.58 19.51Q80.91 19.71 81.26 19.85Q82.09 20.2 83.05 20.2Q83.65 20.2 84.3 20.02Q84.38 20.01 84.45 19.98Q85.02 19.81 85.54 19.49Q86.14 19.12 86.59 18.52Q86.89 18.13 87.1 17.63L87.1 19.01Q87.1 20.49 86.42 21.53Q86.24 21.81 86 22.07Q85.74 22.35 85.43 22.56Q84.46 23.24 83.01 23.24Q82.47 23.24 82.03 23.16Q81.59 23.1 81.28 22.99Q80.97 22.9 80.79 22.84Q80.35 22.66 80.18 22.44Q80.04 22.25 79.87 22.22Q79.84 22.22 79.82 22.22Q79.69 22.22 79.61 22.28Q79.58 22.29 79.56 22.31Q79.54 22.34 79.53 22.36Q79.47 22.45 79.47 22.57Q79.47 22.59 79.48 22.61Q79.5 22.95 80.01 23.25Q80.55 23.57 81.36 23.78Q82.18 23.99 82.98 23.99Q84.44 23.99 85.53 23.39Q85.99 23.14 86.37 22.8Q86.9 22.32 87.26 21.67Q87.89 20.56 87.89 19.01L87.89 10.41Q87.89 10.34 87.87 10.27Q87.84 10.2 87.78 10.14Q87.74 10.09 87.69 10.06Q87.61 10.01 87.5 10.01Q87.38 10.01 87.3 10.06Q87.25 10.09 87.2 10.14Q87.15 10.19 87.13 10.26Q87.1 10.33 87.1 10.41L87.1 12.12Q87.06 12.05 87.02 11.98Q86.7 11.38 86.11 10.86Q85.51 10.34 84.73 10.02Q84.7 10.01 84.66 9.99ZM92.88 19.57Q94.02 20.2 95.52 20.2Q96.22 20.2 96.85 19.98Q97.28 19.84 97.67 19.59Q98.64 18.99 99.26 18.19Q99.28 18.17 99.29 18.15Q99.34 18.06 99.34 17.95Q99.34 17.91 99.33 17.87Q99.3 17.78 99.23 17.7Q99.18 17.64 99.11 17.61Q99.05 17.59 98.99 17.59Q98.97 17.59 98.95 17.6Q98.79 17.62 98.66 17.77Q98.35 18.21 97.88 18.59Q97.4 18.97 96.8 19.2Q96.74 19.23 96.68 19.25Q96.13 19.43 95.52 19.43Q94.1 19.43 93.12 18.81Q92.57 18.46 92.17 17.97Q91.87 17.61 91.66 17.18Q91.6 17.05 91.55 16.92Q91.18 16.01 91.18 14.94Q91.18 14.8 91.18 14.67L99.03 14.67Q99.1 14.67 99.15 14.65Q99.24 14.62 99.31 14.55Q99.4 14.45 99.42 14.35Q99.43 14.3 99.43 14.25Q99.39 13.08 99 12.23Q98.61 11.38 97.98 10.81Q97.64 10.5 97.25 10.28Q96.92 10.09 96.55 9.97Q96.15 9.83 95.74 9.76Q95.34 9.7 94.92 9.7Q94.49 9.7 94.07 9.78Q93.37 9.93 92.72 10.33Q92.62 10.39 92.52 10.46Q91.63 11.07 91.04 12.14Q90.4 13.32 90.4 15Q90.4 16.58 91.05 17.75Q91.43 18.41 91.96 18.91Q92.37 19.28 92.86 19.56Q92.87 19.56 92.88 19.57ZM91.26 13.92Q91.34 13.41 91.52 12.97Q91.87 12.13 92.43 11.59Q92.99 11.04 93.65 10.77Q94.32 10.49 94.92 10.49Q95.25 10.49 95.57 10.55Q96.08 10.64 96.57 10.86Q96.81 10.98 97.04 11.12Q97.55 11.45 97.94 11.96Q97.99 12.01 98.03 12.07Q98.52 12.75 98.61 13.74L98.61 13.92L91.26 13.92ZM108.92 10.2Q108.14 9.7 106.88 9.7Q106.13 9.7 105.38 9.99Q105.04 10.12 104.73 10.29Q104.35 10.51 104.02 10.79Q103.49 11.22 103.14 11.76Q103.14 11.76 103.14 11.76L103.14 10.41Q103.14 10.34 103.11 10.27Q103.08 10.2 103.02 10.14Q102.99 10.09 102.94 10.07Q102.85 10.01 102.74 10.01Q102.67 10.01 102.62 10.03Q102.53 10.06 102.45 10.14Q102.39 10.2 102.36 10.28Q102.34 10.34 102.34 10.41L102.34 19.59Q102.34 19.67 102.36 19.74Q102.39 19.81 102.44 19.88Q102.48 19.92 102.52 19.94Q102.61 20 102.74 20Q102.81 20 102.87 19.97Q102.95 19.94 103.01 19.88Q103.09 19.8 103.12 19.71Q103.14 19.66 103.14 19.59L103.14 13.55Q103.14 13.19 103.24 12.85Q103.37 12.4 103.68 12Q103.82 11.82 103.97 11.67Q104.44 11.19 105.07 10.87Q105.75 10.54 106.46 10.47Q106.62 10.45 106.79 10.45Q107.81 10.45 108.44 10.87Q108.75 11.08 108.98 11.35Q109.21 11.64 109.36 12Q109.65 12.7 109.65 13.55L109.65 19.59Q109.65 19.67 109.68 19.74Q109.71 19.81 109.76 19.88Q109.8 19.92 109.84 19.94Q109.93 20 110.06 20Q110.13 20 110.19 19.97Q110.27 19.94 110.33 19.88Q110.41 19.8 110.44 19.71Q110.46 19.66 110.46 19.59L110.46 13.48Q110.46 12.42 110.08 11.56Q109.89 11.11 109.59 10.76Q109.3 10.44 108.92 10.2ZM120.08 9.9Q119.3 9.7 118.39 9.7Q117.1 9.7 116.08 10.23Q115.91 10.32 115.74 10.43Q115.2 10.78 114.77 11.24Q114.31 11.73 113.99 12.35Q113.78 12.73 113.65 13.13Q113.36 13.98 113.36 14.94Q113.36 16.34 113.91 17.48Q113.95 17.55 113.99 17.63Q114.35 18.31 114.87 18.83Q115.26 19.21 115.73 19.51Q115.92 19.62 116.11 19.71Q117.09 20.2 118.32 20.2Q119.4 20.2 120.19 19.9Q120.98 19.59 121.42 19.2Q121.86 18.81 121.86 18.57Q121.86 18.44 121.8 18.35Q121.78 18.33 121.76 18.32Q121.74 18.29 121.71 18.27Q121.63 18.21 121.51 18.21Q121.46 18.21 121.41 18.23Q121.26 18.27 121.13 18.44Q120.98 18.66 120.56 18.9Q120.22 19.1 119.74 19.27Q119.27 19.43 118.38 19.43Q117.26 19.43 116.39 18.97Q116.27 18.92 116.16 18.85Q115.79 18.62 115.49 18.32Q115.01 17.86 114.68 17.24Q114.66 17.19 114.64 17.15Q114.16 16.16 114.16 14.94Q114.16 13.9 114.54 13.04Q114.62 12.85 114.72 12.67Q115.06 12.06 115.54 11.61Q115.87 11.3 116.26 11.05Q116.67 10.79 117.13 10.65Q117.72 10.45 118.38 10.45Q119.12 10.45 119.63 10.56Q120.14 10.65 120.42 10.8Q120.71 10.94 120.86 11.11Q121 11.27 121.12 11.4Q121.14 11.41 121.15 11.42Q121.28 11.51 121.48 11.51Q121.55 11.51 121.61 11.49Q121.69 11.46 121.74 11.39Q121.84 11.27 121.86 11.14Q121.86 11.13 121.86 11.11Q121.86 11.1 121.86 11.09Q121.84 10.74 121.36 10.42Q120.88 10.09 120.08 9.9ZM132.24 9.75Q132.15 9.7 132.03 9.7Q131.92 9.7 131.83 9.75Q131.78 9.77 131.74 9.82Q131.68 9.88 131.66 9.96Q131.63 10.02 131.63 10.09L131.63 16.33Q131.63 16.42 131.63 16.5Q131.58 17.17 131.11 17.82Q130.98 18 130.82 18.17Q130.38 18.65 129.78 18.98Q129.28 19.26 128.74 19.37Q128.41 19.43 128.08 19.43Q126.74 19.43 126.09 18.77Q126.01 18.68 125.95 18.59Q125.32 17.75 125.32 16.33L125.32 10.09Q125.32 10.03 125.3 9.97Q125.27 9.89 125.2 9.82Q125.17 9.78 125.12 9.75Q125.03 9.7 124.92 9.7Q124.8 9.7 124.72 9.75Q124.66 9.77 124.62 9.82Q124.57 9.88 124.54 9.96Q124.52 10.02 124.52 10.09L124.52 16.33Q124.52 17.5 124.89 18.35Q125.08 18.81 125.39 19.16Q125.67 19.47 126.04 19.71Q126.83 20.2 128.08 20.2Q128.44 20.2 128.79 20.13Q129.17 20.06 129.54 19.91Q130.11 19.68 130.58 19.32Q130.71 19.23 130.82 19.13Q131.36 18.67 131.63 18.12L131.63 19.01Q131.63 20.27 131.14 21.24Q130.81 21.89 130.3 22.35Q130.06 22.56 129.78 22.73Q129.68 22.8 129.58 22.85Q128.78 23.28 127.76 23.28Q126.89 23.28 126.21 22.99Q125.52 22.71 125.17 22.51Q125.09 22.46 125.01 22.45Q124.95 22.45 124.88 22.48Q124.84 22.49 124.81 22.51Q124.71 22.58 124.66 22.7Q124.6 22.8 124.62 22.89Q124.63 22.95 124.65 22.99Q124.66 23.01 124.68 23.03Q124.75 23.15 124.88 23.24Q125.34 23.55 126.06 23.77Q126.8 23.99 127.71 23.99Q128.96 23.99 129.95 23.49Q130.04 23.45 130.14 23.39Q130.49 23.19 130.8 22.93Q131.4 22.42 131.82 21.67Q132.44 20.56 132.44 19.01L132.44 10.09Q132.44 10.03 132.41 9.97Q132.39 9.89 132.32 9.82Q132.28 9.78 132.24 9.75ZM81.64 10.71Q82.32 10.45 83.09 10.45Q83.97 10.45 84.71 10.78Q84.95 10.88 85.17 11.02Q85.45 11.18 85.69 11.39Q86.25 11.88 86.63 12.59Q87.18 13.59 87.18 14.94Q87.18 16.27 86.63 17.29Q86.26 17.99 85.7 18.48Q85.46 18.69 85.17 18.87Q84.94 19.01 84.69 19.12Q83.96 19.43 83.09 19.43Q82.33 19.43 81.66 19.18Q81.32 19.05 81 18.85Q80.7 18.65 80.43 18.41Q79.9 17.92 79.54 17.24Q79.52 17.19 79.5 17.15Q79.02 16.16 79.02 14.94Q79.02 13.63 79.54 12.63Q79.89 11.96 80.41 11.49Q80.68 11.23 81 11.04Q81.31 10.84 81.64 10.71Z" fill="#E2E2E2" fill-opacity="1.000000" fill-rule="evenodd"/>
	<path id="Creative" d="M74.02 33.92Q74 33.81 73.88 33.72Q73.16 33.21 72.26 32.92Q72.09 32.87 71.92 32.83Q71.17 32.64 70.38 32.64Q69.46 32.64 68.63 32.91Q68.42 32.98 68.22 33.07Q67.7 33.29 67.25 33.6Q66.82 33.9 66.44 34.28Q66.3 34.42 66.17 34.57Q65.59 35.24 65.23 36.1Q64.8 37.15 64.8 38.39Q64.8 39.64 65.23 40.69Q65.58 41.51 66.12 42.16Q66.27 42.35 66.44 42.51Q66.81 42.89 67.23 43.18Q67.69 43.5 68.22 43.73Q68.41 43.81 68.61 43.87Q69.44 44.16 70.38 44.16Q71.03 44.16 71.69 44Q72.35 43.85 72.93 43.6Q73.51 43.34 73.9 43.07Q73.96 43.02 74 42.96Q74.02 42.91 74.03 42.86Q74.03 42.8 74.02 42.75Q74.01 42.68 73.96 42.62Q73.91 42.55 73.85 42.52Q73.8 42.5 73.75 42.49Q73.71 42.49 73.67 42.49Q73.59 42.5 73.51 42.55Q73.47 42.58 73.43 42.61Q72.79 43.02 72.06 43.28Q71.28 43.55 70.38 43.55Q69.48 43.55 68.69 43.26Q68.58 43.22 68.47 43.17Q68.03 42.99 67.65 42.73Q67.25 42.46 66.91 42.11Q66.83 42.03 66.76 41.95Q66.19 41.31 65.85 40.48Q65.47 39.53 65.47 38.39Q65.47 37.26 65.85 36.32Q66.19 35.48 66.76 34.84Q66.83 34.76 66.91 34.68Q67.25 34.33 67.65 34.06Q68.03 33.8 68.47 33.62Q68.59 33.57 68.71 33.52Q69.5 33.24 70.38 33.24Q71.28 33.24 72.07 33.51Q72.74 33.75 73.33 34.12Q73.43 34.18 73.53 34.25Q73.62 34.3 73.71 34.31Q73.74 34.31 73.76 34.31Q73.8 34.31 73.83 34.29Q73.91 34.26 73.96 34.19Q74.04 34.06 74.03 33.94L74.03 33.94Q74.03 33.93 74.02 33.92ZM105.82 34.57Q105.96 34.67 106.17 34.67Q106.36 34.67 106.49 34.58Q106.53 34.56 106.56 34.52Q106.62 34.46 106.66 34.39Q106.71 34.29 106.71 34.16L106.71 34.03Q106.71 33.89 106.66 33.79Q106.62 33.72 106.56 33.66Q106.51 33.61 106.45 33.58Q106.34 33.51 106.19 33.51Q105.98 33.51 105.84 33.61Q105.81 33.63 105.77 33.66Q105.7 33.72 105.66 33.81Q105.61 33.9 105.61 34.03L105.61 34.16Q105.61 34.29 105.67 34.39Q105.7 34.46 105.77 34.52Q105.79 34.55 105.82 34.57ZM101.69 33.64Q101.62 33.6 101.53 33.6Q101.49 33.6 101.45 33.61Q101.37 33.63 101.31 33.69Q101.25 33.75 101.23 33.81Q101.21 33.86 101.21 33.92L101.21 35.95L99.9 35.95Q99.88 35.95 99.85 35.95Q99.77 35.97 99.69 36.04Q99.64 36.08 99.62 36.13Q99.6 36.19 99.6 36.25Q99.6 36.27 99.6 36.28Q99.61 36.38 99.69 36.46Q99.77 36.54 99.86 36.55Q99.88 36.55 99.9 36.55L101.21 36.55L101.21 42.28Q101.21 42.99 101.4 43.35Q101.6 43.71 101.87 43.84Q102.16 43.98 102.4 43.99Q102.65 44 102.75 44Q103.02 44 103.2 43.89Q103.36 43.8 103.38 43.69Q103.39 43.67 103.39 43.64Q103.39 43.59 103.37 43.55Q103.35 43.49 103.31 43.44Q103.26 43.39 103.21 43.37Q103.16 43.35 103.12 43.35Q103 43.35 102.92 43.39Q102.84 43.42 102.73 43.42Q102.54 43.42 102.33 43.35Q102.32 43.35 102.31 43.34Q102.12 43.26 101.99 43.03Q101.85 42.78 101.85 42.25L101.85 36.55L103.61 36.55Q103.69 36.55 103.75 36.52Q103.79 36.5 103.83 36.47Q103.87 36.42 103.9 36.36Q103.92 36.31 103.92 36.25Q103.92 36.22 103.91 36.19Q103.89 36.12 103.83 36.05Q103.78 36 103.73 35.97Q103.67 35.95 103.61 35.95L101.85 35.95L101.85 33.92Q101.85 33.85 101.83 33.8Q101.81 33.74 101.76 33.69Q101.73 33.66 101.69 33.64ZM109.09 35.78Q109 35.72 108.92 35.72Q108.77 35.72 108.68 35.8Q108.68 35.81 108.67 35.82Q108.63 35.87 108.61 35.92Q108.59 35.98 108.59 36.04Q108.59 36.07 108.6 36.12Q108.6 36.16 108.62 36.19L111.82 43.79Q111.83 43.82 111.85 43.85Q111.88 43.9 111.94 43.94Q112 43.98 112.08 43.99Q112.1 44 112.12 44Q112.24 44 112.31 43.94Q112.39 43.89 112.43 43.79L115.61 36.17Q115.63 36.14 115.64 36.1Q115.66 36.06 115.66 35.98Q115.66 35.92 115.63 35.87Q115.6 35.82 115.55 35.79Q115.44 35.72 115.35 35.72Q115.2 35.72 115.11 35.79Q115.05 35.85 115.02 35.93L112.11 42.88L109.21 35.93Q109.2 35.89 109.17 35.85Q109.14 35.81 109.09 35.78ZM76.23 43.95Q76.3 44 76.4 44Q76.45 44 76.5 43.98Q76.57 43.95 76.62 43.9Q76.68 43.84 76.7 43.77Q76.72 43.72 76.72 43.67L76.72 39.67Q76.72 39.12 76.95 38.53Q77.05 38.3 77.17 38.08Q77.35 37.74 77.6 37.43Q78.01 36.92 78.51 36.62Q78.96 36.34 79.43 36.32Q79.47 36.32 79.52 36.32Q79.77 36.32 79.91 36.39Q80.04 36.46 80.14 36.46Q80.21 36.46 80.27 36.43Q80.31 36.41 80.34 36.37Q80.36 36.34 80.38 36.32Q80.43 36.23 80.43 36.12Q80.43 36.02 80.38 35.95Q80.31 35.85 80.17 35.82Q79.92 35.76 79.69 35.76Q78.95 35.76 78.37 36.07Q78.34 36.08 78.31 36.1Q78.02 36.27 77.77 36.48Q77.51 36.71 77.29 37Q77.01 37.37 76.82 37.78Q76.76 37.9 76.72 38.03L76.72 36.33Q76.72 36.27 76.69 36.21Q76.67 36.16 76.63 36.11Q76.6 36.07 76.56 36.05Q76.49 36.01 76.4 36.01Q76.35 36.01 76.3 36.03Q76.23 36.05 76.17 36.11Q76.12 36.16 76.09 36.22Q76.08 36.27 76.08 36.33L76.08 43.67Q76.08 43.74 76.1 43.79Q76.12 43.85 76.16 43.9Q76.19 43.93 76.23 43.95ZM83.26 43.65Q84.18 44.16 85.37 44.16Q85.94 44.16 86.44 43.98Q86.78 43.87 87.09 43.67Q87.87 43.19 88.36 42.55Q88.38 42.54 88.39 42.52Q88.43 42.45 88.43 42.36Q88.43 42.33 88.42 42.3Q88.4 42.23 88.35 42.16Q88.3 42.11 88.24 42.09Q88.2 42.07 88.15 42.07Q88.13 42.07 88.12 42.08Q87.99 42.09 87.88 42.22Q87.64 42.57 87.26 42.87Q86.88 43.18 86.4 43.36Q86.35 43.38 86.3 43.4Q85.86 43.55 85.37 43.55Q84.24 43.55 83.46 43.05Q83.01 42.76 82.69 42.37Q82.46 42.09 82.29 41.74Q82.24 41.64 82.2 41.54Q81.9 40.81 81.9 39.95Q81.9 39.84 81.9 39.74L88.19 39.74Q88.24 39.74 88.28 39.72Q88.35 39.7 88.41 39.64Q88.48 39.56 88.5 39.48Q88.51 39.44 88.51 39.4Q88.47 38.46 88.16 37.78Q87.85 37.1 87.35 36.64Q87.07 36.4 86.76 36.22Q86.5 36.07 86.2 35.97Q85.88 35.86 85.55 35.81Q85.23 35.76 84.89 35.76Q84.55 35.76 84.22 35.83Q83.66 35.94 83.14 36.26Q83.06 36.31 82.98 36.37Q82.26 36.86 81.79 37.71Q81.28 38.65 81.28 40Q81.28 41.26 81.8 42.2Q82.1 42.73 82.53 43.12Q82.85 43.42 83.25 43.64Q83.25 43.65 83.26 43.65ZM81.97 39.13Q82.03 38.72 82.18 38.38Q82.46 37.71 82.9 37.27Q83.35 36.83 83.88 36.61Q84.41 36.39 84.89 36.39Q85.16 36.39 85.41 36.44Q85.82 36.51 86.22 36.69Q86.41 36.78 86.59 36.9Q87 37.16 87.31 37.57Q87.35 37.61 87.38 37.65Q87.78 38.2 87.85 38.99L87.85 39.13L81.97 39.13ZM97.65 36.04Q97.58 36.01 97.5 36.01Q97.41 36.01 97.34 36.05Q97.3 36.07 97.27 36.11Q97.23 36.15 97.2 36.21Q97.18 36.26 97.18 36.33L97.18 37.76Q97.18 37.75 97.18 37.75Q97.01 37.36 96.76 37.04Q96.63 36.86 96.47 36.7Q96.32 36.56 96.17 36.44Q95.82 36.18 95.4 36.01Q95.27 35.95 95.13 35.91Q94.64 35.76 94.11 35.76Q93.39 35.76 92.77 36.01Q92.48 36.12 92.21 36.29Q91.98 36.44 91.77 36.62Q91.23 37.09 90.88 37.76Q90.4 38.7 90.4 39.92Q90.4 41.11 90.87 42.06Q90.87 42.07 90.88 42.08Q91.22 42.77 91.75 43.25Q91.96 43.44 92.2 43.6Q92.47 43.78 92.77 43.9Q93.38 44.16 94.11 44.16Q94.71 44.16 95.24 43.96Q95.33 43.93 95.42 43.89Q96.03 43.63 96.47 43.2Q96.92 42.76 97.18 42.24Q97.18 42.23 97.18 42.23L97.18 43.67Q97.18 43.74 97.2 43.79Q97.22 43.85 97.27 43.9Q97.3 43.93 97.33 43.95Q97.4 44 97.5 44Q97.55 44 97.59 43.98Q97.66 43.96 97.72 43.9Q97.78 43.84 97.81 43.77Q97.82 43.72 97.82 43.67L97.82 36.33Q97.82 36.27 97.8 36.21Q97.78 36.16 97.73 36.11Q97.69 36.07 97.65 36.04ZM106.48 43.77Q106.49 43.72 106.49 43.67L106.49 36.07Q106.49 36.02 106.48 35.97Q106.45 35.91 106.4 35.85Q106.37 35.82 106.34 35.8Q106.27 35.76 106.17 35.76Q106.12 35.76 106.08 35.77Q106.01 35.79 105.95 35.85Q105.89 35.91 105.87 35.98Q105.85 36.02 105.85 36.07L105.85 43.67Q105.85 43.74 105.87 43.79Q105.89 43.85 105.94 43.9Q105.97 43.93 106 43.95Q106.07 44 106.17 44Q106.23 44 106.28 43.98Q106.34 43.95 106.39 43.9Q106.45 43.84 106.48 43.77ZM119.17 43.65Q120.08 44.16 121.28 44.16Q121.84 44.16 122.35 43.98Q122.68 43.87 123 43.67Q123.77 43.19 124.27 42.55Q124.28 42.54 124.29 42.52Q124.33 42.45 124.33 42.36Q124.33 42.33 124.32 42.3Q124.31 42.23 124.25 42.16Q124.21 42.11 124.15 42.09Q124.11 42.07 124.06 42.07Q124.04 42.07 124.02 42.08Q123.9 42.09 123.79 42.22Q123.55 42.57 123.16 42.87Q122.78 43.18 122.3 43.36Q122.25 43.38 122.21 43.4Q121.77 43.55 121.28 43.55Q120.14 43.55 119.36 43.05Q118.92 42.76 118.6 42.37Q118.36 42.09 118.2 41.74Q118.15 41.64 118.11 41.54Q117.8 40.81 117.8 39.95Q117.8 39.84 117.81 39.74L124.09 39.74Q124.14 39.74 124.19 39.72Q124.26 39.7 124.31 39.64Q124.38 39.56 124.4 39.48Q124.41 39.44 124.41 39.4Q124.38 38.46 124.07 37.78Q123.75 37.1 123.25 36.64Q122.98 36.4 122.67 36.22Q122.4 36.07 122.11 35.97Q121.79 35.86 121.46 35.81Q121.13 35.76 120.8 35.76Q120.45 35.76 120.12 35.83Q119.56 35.94 119.04 36.26Q118.96 36.31 118.88 36.37Q118.17 36.86 117.7 37.71Q117.18 38.65 117.18 40Q117.18 41.26 117.71 42.2Q118.01 42.73 118.43 43.12Q118.76 43.42 119.15 43.64Q119.16 43.65 119.17 43.65ZM117.87 39.13Q117.94 38.72 118.08 38.38Q118.36 37.71 118.81 37.27Q119.26 36.83 119.79 36.61Q120.32 36.39 120.8 36.39Q121.06 36.39 121.32 36.44Q121.73 36.51 122.12 36.69Q122.31 36.78 122.49 36.9Q122.9 37.16 123.22 37.57Q123.25 37.61 123.28 37.65Q123.68 38.2 123.75 38.99L123.75 39.13L117.87 39.13ZM95.27 43.33Q94.75 43.55 94.14 43.55Q93.54 43.55 93.03 43.34Q92.77 43.23 92.54 43.08Q92.39 42.98 92.26 42.86Q91.75 42.43 91.43 41.78Q91.04 40.96 91.04 39.92Q91.04 38.87 91.44 38.08Q91.75 37.47 92.24 37.06Q92.39 36.93 92.56 36.82Q92.81 36.66 93.08 36.55Q93.57 36.36 94.14 36.36Q94.74 36.36 95.25 36.57Q95.51 36.68 95.74 36.83Q95.93 36.96 96.1 37.11Q96.55 37.53 96.84 38.12Q96.87 38.17 96.89 38.23Q97.24 38.99 97.24 39.92Q97.24 40.96 96.84 41.78Q96.53 42.42 96.04 42.85Q95.89 42.97 95.74 43.08Q95.51 43.23 95.27 43.33Z" fill="#E2E2E2" fill-opacity="1.000000" fill-rule="evenodd"/>
</svg>
